<?xml version="1.0" standalone="no"?>
<!DOCTYPE svg PUBLIC "-//W3C//DTD SVG 20010904//EN"
 "http://www.w3.org/TR/2001/REC-SVG-20010904/DTD/svg10.dtd">
<svg version="1.0" xmlns="http://www.w3.org/2000/svg"
 width="200.000000pt" height="125.000000pt" viewBox="0 0 547.000000 146.000000"
 preserveAspectRatio="xMidYMid meet">

<g transform="translate(0.000000,146.000000) scale(0.100000,-0.100000)"
fill="#000000" stroke="none">
<path d="M2680 1410 l0 -50 40 0 40 0 0 50 0 50 -40 0 -40 0 0 -50z"/>
<path d="M368 1193 l3 -183 -101 0 -100 0 0 180 0 180 -85 0 -85 0 0 -445 0
-445 85 0 85 0 2 183 3 182 95 0 95 0 3 -182 2 -183 80 0 80 0 0 444 0 445
-82 3 -83 3 3 -182z"/>
<path d="M650 925 l0 -445 80 0 80 0 0 445 0 445 -80 0 -80 0 0 -445z"/>
<path d="M987 1302 l-67 -68 0 -128 0 -128 61 -64 62 -63 131 -3 131 -3 3 -97
3 -98 -111 0 -110 0 0 65 0 65 -85 0 -85 0 0 -83 0 -83 68 -67 68 -67 145 0
145 0 62 63 62 63 0 140 0 140 -63 62 -63 62 -127 0 -127 0 0 100 0 100 110 0
110 0 0 -70 0 -70 80 0 80 0 0 88 0 88 -63 62 -63 62 -145 0 -145 0 -67 -68z"/>
<path d="M1570 1290 l0 -80 80 0 80 0 0 -365 0 -365 85 0 85 0 0 365 0 365 80
0 80 0 0 80 0 80 -245 0 -245 0 0 -80z"/>
<path d="M3350 925 l0 -445 85 0 85 0 0 170 0 170 110 0 110 0 0 -170 0 -170
80 0 80 0 0 203 c0 192 -1 205 -20 222 l-20 18 20 22 c18 19 20 35 20 161 l0
140 -63 62 -63 62 -212 0 -212 0 0 -445z m390 175 l0 -110 -110 0 -110 0 0
110 0 110 110 0 110 0 0 -110z"/>
<path d="M3995 1283 c1 -49 2 -249 3 -445 l2 -358 80 0 80 0 0 445 0 445 -83
0 -84 0 2 -87z"/>
<path d="M4338 1304 l-68 -66 0 -312 0 -312 68 -67 68 -67 145 0 145 0 62 63
62 63 0 87 0 87 -80 0 -80 0 0 -65 0 -65 -110 0 -110 0 0 280 0 280 110 0 110
0 0 -70 0 -70 80 0 80 0 0 88 0 88 -63 62 -63 62 -144 0 -145 0 -67 -66z"/>
<path d="M4982 1307 l-62 -63 0 -320 0 -320 63 -62 63 -62 145 0 145 0 67 68
67 68 0 314 0 315 -67 62 -67 63 -146 0 -146 0 -62 -63z m318 -377 l0 -280
-110 0 -110 0 0 280 0 280 110 0 110 0 0 -280z"/>
<path d="M2337 1302 l-27 -28 38 -37 38 -37 29 30 29 30 -34 35 c-19 19 -37
35 -40 35 -3 0 -18 -13 -33 -28z"/>
<path d="M3026 1291 l-36 -37 28 -27 28 -27 37 38 c20 21 37 40 37 43 0 3 -13
15 -29 26 l-28 22 -37 -38z"/>
<path d="M2596 1251 c-98 -40 -151 -92 -195 -191 -28 -64 -36 -138 -21 -202
27 -115 93 -197 199 -246 80 -38 192 -37 273 0 79 37 140 96 174 171 25 53 29
74 29 147 0 71 -4 94 -27 141 -33 72 -95 134 -167 167 -76 36 -193 41 -265 13z
m224 -82 c91 -41 148 -121 157 -219 18 -195 -174 -337 -359 -267 -62 24 -140
109 -158 171 -26 92 3 197 72 263 75 72 196 94 288 52z"/>
<path d="M2180 930 l0 -40 55 0 55 0 0 40 0 40 -55 0 -55 0 0 -40z"/>
<path d="M3140 931 c0 -44 10 -51 71 -51 l39 0 0 45 0 45 -55 0 -55 0 0 -39z"/>
<path d="M2347 612 l-37 -38 28 -27 28 -27 37 38 37 38 -28 27 -28 27 -37 -38z"/>
<path d="M3017 622 l-27 -28 38 -37 38 -37 29 30 29 30 -34 35 c-19 19 -37 35
-40 35 -3 0 -18 -13 -33 -28z"/>
<path d="M2680 445 l0 -55 40 0 40 0 0 55 0 55 -40 0 -40 0 0 -55z"/>
<path d="M1920 110 c0 -62 4 -110 9 -110 6 0 11 19 13 43 3 41 4 42 45 48 23
3 48 11 57 18 17 14 21 57 8 79 -10 15 -66 32 -104 32 l-28 0 0 -110z m104 74
c19 -19 21 -48 4 -62 -7 -6 -29 -12 -48 -14 l-35 -3 -3 48 -3 47 35 0 c19 0
42 -7 50 -16z"/>
<path d="M2118 214 c-12 -11 -10 -214 2 -214 6 0 10 20 10 45 0 41 2 45 25 45
18 0 31 -11 51 -45 14 -25 30 -45 35 -45 13 0 11 7 -13 50 l-23 39 23 21 c25
24 29 71 8 89 -17 14 -108 26 -118 15z m93 -24 c43 -24 9 -83 -45 -78 -26 2
-32 8 -34 31 -2 16 -1 35 2 43 6 16 49 19 77 4z"/>
<path d="M2310 110 l0 -110 60 0 c33 0 60 4 60 10 0 6 -22 10 -50 10 l-50 0 0
40 c0 39 1 40 34 40 19 0 38 5 41 10 4 6 -10 10 -34 10 l-41 0 0 40 0 40 51 0
c31 0 48 4 44 10 -3 6 -31 10 -61 10 l-54 0 0 -110z"/>
<path d="M2519 205 c-57 -31 -65 -139 -14 -182 30 -26 86 -31 104 -9 10 12 6
13 -29 9 -30 -4 -45 -1 -60 12 -46 41 -29 147 26 161 15 4 35 2 45 -4 11 -7
20 -8 24 -2 7 11 -27 30 -52 30 -10 -1 -30 -7 -44 -15z"/>
<path d="M2680 111 c0 -67 4 -111 10 -111 6 0 10 41 10 104 0 59 -4 108 -10
111 -6 4 -10 -33 -10 -104z"/>
<path d="M2783 196 c-25 -22 -28 -31 -28 -86 0 -55 3 -64 28 -86 39 -34 81
-31 119 6 28 29 30 35 26 87 -4 46 -10 61 -32 80 -35 30 -77 29 -113 -1z m98
-15 c19 -16 24 -29 24 -69 0 -59 -24 -92 -65 -92 -67 0 -93 107 -40 160 25 25
51 25 81 1z"/>
<path d="M3058 214 c-5 -4 -8 -54 -8 -111 l0 -103 60 0 c33 0 60 4 60 10 0 6
-22 10 -50 10 l-49 0 -3 101 c-2 55 -6 97 -10 93z"/>
<path d="M3204 205 c-4 -9 -4 -50 -2 -91 6 -89 23 -114 78 -114 60 0 75 25 75
126 0 111 -19 116 -23 4 -3 -92 -11 -110 -51 -110 -43 0 -51 17 -51 106 0 78
-12 115 -26 79z"/>
<path d="M3420 210 c0 -5 23 -10 50 -10 28 0 50 -2 50 -5 0 -3 -22 -38 -48
-78 -85 -125 -85 -117 3 -117 43 0 75 4 75 10 0 6 -25 10 -56 10 -66 0 -66 -2
6 105 28 42 48 80 45 85 -8 13 -125 13 -125 0z"/>
<path d="M140 110 c0 -7 288 -10 845 -10 557 0 845 3 845 10 0 7 -288 10 -845
10 -557 0 -845 -3 -845 -10z"/>
<path d="M3640 110 c0 -7 288 -10 845 -10 557 0 845 3 845 10 0 7 -288 10
-845 10 -557 0 -845 -3 -845 -10z"/>
</g>
</svg>
